<svg width="445" height="445" viewBox="0 0 445 445" fill="none" xmlns="http://www.w3.org/2000/svg">
<path d="M368.813 171.399C368.979 172.446 368.864 173.332 368.469 174.058C368.087 174.779 367.43 175.314 366.498 175.665C365.287 176.12 364.193 176.038 363.215 175.418C362.243 174.811 361.444 173.676 360.818 172.012L358.492 165.824L372.466 160.57L374.651 166.379C375.211 167.87 375.343 169.149 375.046 170.218C374.749 171.287 374.021 172.039 372.863 172.474C372.078 172.769 371.338 172.82 370.642 172.626C369.959 172.427 369.35 172.018 368.813 171.399ZM366.686 164.406L368.292 168.679C368.697 169.757 369.227 170.499 369.881 170.906C370.541 171.327 371.29 171.38 372.128 171.064C372.967 170.749 373.496 170.216 373.715 169.465C373.939 168.728 373.848 167.82 373.443 166.742L371.836 162.47L366.686 164.406ZM361.996 171.57C362.902 173.979 364.253 174.845 366.05 174.17C367.807 173.509 368.232 171.975 367.327 169.566L365.548 164.834L360.217 166.838L361.996 171.57Z" fill="#A3A3A3"/>
<path d="M364.593 184.273C364.3 183.203 364.27 182.179 364.504 181.201C364.741 180.237 365.212 179.4 365.917 178.691C366.636 177.978 367.524 177.477 368.58 177.188C369.636 176.899 370.648 176.88 371.615 177.131C372.583 177.382 373.415 177.862 374.11 178.571C374.81 179.293 375.305 180.19 375.598 181.259C375.854 182.192 375.896 183.072 375.724 183.901C375.571 184.739 375.202 185.466 374.619 186.083L373.58 185.195C374.017 184.692 374.291 184.131 374.402 183.511C374.526 182.887 374.499 182.253 374.323 181.609C374.109 180.827 373.737 180.169 373.208 179.636C372.696 179.113 372.069 178.761 371.327 178.581C370.589 178.415 369.808 178.444 368.985 178.669C368.149 178.899 367.455 179.273 366.904 179.792C366.371 180.321 366.011 180.943 365.823 181.658C365.653 182.383 365.675 183.136 365.889 183.918C366.065 184.562 366.359 185.123 366.77 185.6C367.18 186.078 367.702 186.421 368.335 186.631L367.892 187.924C367.077 187.691 366.382 187.254 365.809 186.615C365.25 185.972 364.844 185.191 364.593 184.273Z" fill="#A3A3A3"/>
<path d="M373.393 200.357L371.684 191.13C370.553 191.426 369.705 192.039 369.139 192.968C368.588 193.894 368.425 194.965 368.65 196.182C368.777 196.867 369.012 197.474 369.356 198.003C369.714 198.53 370.169 198.959 370.722 199.29L369.913 200.308C369.235 199.927 368.674 199.395 368.229 198.711C367.787 198.041 367.484 197.265 367.321 196.384C367.111 195.252 367.162 194.201 367.475 193.232C367.804 192.275 368.349 191.473 369.111 190.825C369.874 190.178 370.793 189.755 371.87 189.555C372.946 189.356 373.953 189.408 374.892 189.712C375.833 190.029 376.616 190.549 377.241 191.272C377.869 192.009 378.278 192.888 378.467 193.908C378.656 194.929 378.588 195.889 378.263 196.788C377.937 197.687 377.391 198.446 376.624 199.065C375.87 199.682 374.948 200.091 373.858 200.293L373.393 200.357ZM377.188 194.145C376.991 193.083 376.483 192.251 375.663 191.651C374.86 191.062 373.904 190.82 372.795 190.924L374.244 198.747C375.316 198.447 376.121 197.871 376.657 197.02C377.21 196.18 377.387 195.222 377.188 194.145Z" fill="#A3A3A3"/>
<path d="M369.39 213.607C369.327 212.528 369.511 211.541 369.943 210.647C370.39 209.753 371.031 209.032 371.868 208.484C372.705 207.937 373.67 207.631 374.763 207.568C375.856 207.504 376.85 207.695 377.745 208.142C378.64 208.588 379.354 209.23 379.887 210.068C380.42 210.906 380.718 211.864 380.781 212.943C380.844 214.021 380.659 215.008 380.227 215.902C379.795 216.796 379.16 217.509 378.322 218.043C377.485 218.59 376.52 218.895 375.427 218.959C374.334 219.023 373.34 218.831 372.445 218.385C371.551 217.953 370.831 217.318 370.284 216.481C369.75 215.644 369.452 214.685 369.39 213.607ZM370.731 213.528C370.777 214.323 370.996 215.023 371.387 215.627C371.794 216.244 372.341 216.71 373.029 217.026C373.716 217.342 374.486 217.476 375.338 217.426C376.19 217.376 376.939 217.155 377.585 216.761C378.232 216.367 378.714 215.841 379.031 215.181C379.364 214.535 379.507 213.815 379.461 213.02C379.414 212.225 379.188 211.519 378.782 210.901C378.39 210.298 377.851 209.83 377.162 209.5C376.474 209.184 375.704 209.051 374.853 209.101C374.001 209.15 373.252 209.372 372.605 209.766C371.96 210.174 371.471 210.701 371.138 211.347C370.82 212.006 370.685 212.734 370.731 213.528Z" fill="#A3A3A3"/>
<path d="M380.241 238.521L369.048 237.752L369.152 236.242L379.004 236.919L379.486 229.897L369.635 229.22L369.738 227.709L380.931 228.478L380.241 238.521Z" fill="#A3A3A3"/>
<path d="M378.851 248.743C378.683 249.781 378.292 250.683 377.678 251.448C377.078 252.215 376.312 252.768 375.378 253.106C374.445 253.444 373.431 253.525 372.336 253.347C371.227 253.168 370.283 252.77 369.504 252.154C368.726 251.538 368.166 250.77 367.825 249.85C367.496 248.947 367.417 247.969 367.588 246.917C367.734 246.018 368.048 245.234 368.531 244.563C369.026 243.909 369.669 243.408 370.46 243.061L364.292 242.061L364.534 240.566L379.692 243.024L379.46 244.455L377.271 244.1C377.928 244.668 378.393 245.348 378.668 246.142C378.941 246.949 379.002 247.816 378.851 248.743ZM368.931 247.026C368.806 247.798 368.868 248.528 369.116 249.217C369.379 249.908 369.811 250.482 370.414 250.94C371.015 251.412 371.736 251.716 372.578 251.853C373.42 251.989 374.194 251.927 374.899 251.667C375.615 251.423 376.207 251.015 376.674 250.442C377.142 249.87 377.438 249.198 377.563 248.426C377.691 247.64 377.623 246.901 377.361 246.211C377.096 245.534 376.663 244.96 376.063 244.488C375.474 244.032 374.758 243.736 373.916 243.6C373.074 243.463 372.295 243.517 371.578 243.761C370.859 244.019 370.267 244.427 369.802 244.985C369.349 245.56 369.059 246.24 368.931 247.026Z" fill="#A3A3A3"/>
<path d="M365.005 259.016C365.274 257.97 365.751 257.087 366.436 256.368C367.134 255.652 367.965 255.161 368.93 254.896C369.894 254.63 370.906 254.634 371.966 254.907C373.026 255.181 373.914 255.666 374.63 256.365C375.346 257.063 375.829 257.892 376.081 258.853C376.333 259.813 376.324 260.817 376.054 261.863C375.785 262.91 375.308 263.793 374.623 264.512C373.939 265.231 373.116 265.717 372.156 265.969C371.191 266.234 370.179 266.23 369.119 265.957C368.059 265.684 367.171 265.198 366.455 264.5C365.736 263.815 365.243 262.991 364.978 262.027C364.726 261.066 364.735 260.063 365.005 259.016ZM366.306 259.352C366.107 260.123 366.102 260.856 366.29 261.55C366.488 262.262 366.867 262.873 367.425 263.384C367.984 263.895 368.676 264.257 369.502 264.47C370.328 264.683 371.109 264.701 371.845 264.523C372.581 264.346 373.201 263.991 373.705 263.46C374.219 262.947 374.575 262.304 374.774 261.533C374.973 260.762 374.973 260.021 374.774 259.309C374.586 258.615 374.215 258.005 373.66 257.48C373.101 256.969 372.409 256.607 371.583 256.394C370.757 256.182 369.976 256.164 369.24 256.341C368.501 256.533 367.874 256.885 367.36 257.399C366.856 257.93 366.505 258.581 366.306 259.352Z" fill="#A3A3A3"/>
<path d="M360.012 279.067L356.115 277.675L356.596 276.329L359.247 277.276L362.699 267.615L373.263 271.39L372.754 272.816L363.434 269.486L361.131 275.933L370.45 279.263L369.941 280.689L360.622 277.359L360.012 279.067Z" fill="#A3A3A3"/>
<path d="M358.495 291.403L362.41 282.875C361.315 282.466 360.269 282.478 359.272 282.912C358.288 283.352 357.537 284.135 357.021 285.259C356.731 285.892 356.574 286.524 356.55 287.155C356.539 287.791 356.665 288.404 356.926 288.993L355.679 289.36C355.344 288.658 355.191 287.9 355.221 287.084C355.245 286.282 355.444 285.474 355.818 284.659C356.298 283.613 356.945 282.783 357.758 282.171C358.578 281.577 359.486 281.235 360.482 281.145C361.478 281.054 362.474 281.237 363.469 281.694C364.464 282.151 365.257 282.774 365.85 283.562C366.436 284.363 366.777 285.239 366.873 286.19C366.962 287.154 366.79 288.108 366.357 289.052C365.924 289.995 365.316 290.74 364.533 291.288C363.749 291.836 362.865 292.142 361.881 292.207C360.91 292.277 359.921 292.081 358.913 291.619L358.495 291.403ZM365.175 288.509C365.626 287.527 365.689 286.554 365.364 285.592C365.046 284.648 364.404 283.899 363.438 283.346L360.119 290.576C361.168 290.949 362.157 290.941 363.086 290.554C364.022 290.185 364.718 289.504 365.175 288.509Z" fill="#A3A3A3"/>
<path d="M350.26 295.407C350.806 294.442 351.506 293.694 352.36 293.164C353.208 292.646 354.131 292.384 355.131 292.377C356.144 292.378 357.126 292.647 358.08 293.185C359.033 293.724 359.765 294.423 360.275 295.282C360.786 296.142 361.038 297.069 361.033 298.062C361.02 299.067 360.741 300.053 360.196 301.018C359.721 301.86 359.13 302.515 358.426 302.982C357.726 303.469 356.952 303.726 356.104 303.753L355.991 302.391C356.656 302.342 357.246 302.136 357.761 301.774C358.288 301.419 358.716 300.95 359.045 300.368C359.443 299.662 359.642 298.934 359.642 298.182C359.647 297.451 359.45 296.759 359.049 296.109C358.642 295.471 358.067 294.942 357.325 294.522C356.569 294.096 355.813 293.873 355.057 293.854C354.305 293.854 353.611 294.042 352.975 294.417C352.344 294.812 351.829 295.362 351.43 296.068C351.102 296.65 350.915 297.255 350.871 297.883C350.826 298.511 350.955 299.122 351.256 299.717L350.031 300.324C349.617 299.583 349.431 298.784 349.474 297.927C349.53 297.077 349.792 296.237 350.26 295.407Z" fill="#A3A3A3"/>
<path d="M343.831 305.682C344.452 304.764 345.21 304.074 346.104 303.615C346.991 303.167 347.932 302.98 348.93 303.054C349.939 303.135 350.897 303.483 351.804 304.096C352.711 304.709 353.384 305.465 353.824 306.363C354.264 307.261 354.441 308.205 354.355 309.194C354.262 310.195 353.905 311.155 353.284 312.074C352.742 312.875 352.101 313.48 351.361 313.889C350.625 314.318 349.833 314.512 348.985 314.471L348.982 313.104C349.649 313.109 350.253 312.951 350.795 312.631C351.35 312.319 351.814 311.887 352.188 311.333C352.642 310.662 352.899 309.952 352.959 309.203C353.023 308.473 352.882 307.769 352.535 307.088C352.181 306.419 351.65 305.846 350.944 305.368C350.225 304.882 349.489 304.599 348.737 304.519C347.988 304.459 347.281 304.591 346.616 304.914C345.956 305.256 345.398 305.764 344.944 306.435C344.57 306.989 344.335 307.577 344.24 308.199C344.146 308.822 344.224 309.441 344.477 310.058L343.208 310.564C342.854 309.793 342.733 308.982 342.845 308.131C342.969 307.288 343.297 306.471 343.831 305.682Z" fill="#A3A3A3"/>
<path d="M345.939 321.962C345.018 323.101 344.025 323.743 342.959 323.887C341.903 324.04 340.817 323.665 339.699 322.763L334.29 318.395L335.201 317.267L336.562 318.365C336.322 317.734 336.285 317.055 336.451 316.33C336.607 315.615 336.971 314.904 337.543 314.196C338.329 313.223 339.187 312.636 340.116 312.436C341.045 312.236 341.891 312.444 342.654 313.06C343.396 313.659 343.779 314.407 343.803 315.304C343.819 316.212 343.354 317.253 342.407 318.425L340.169 321.196L340.7 321.625C341.453 322.233 342.192 322.482 342.919 322.375C343.657 322.276 344.351 321.823 345.003 321.015C345.45 320.462 345.785 319.855 346.008 319.194C346.242 318.542 346.345 317.904 346.319 317.28L347.628 317.459C347.646 318.206 347.505 318.969 347.204 319.749C346.914 320.538 346.492 321.276 345.939 321.962ZM338.325 315.129C337.789 315.793 337.478 316.483 337.393 317.2C337.319 317.926 337.475 318.637 337.863 319.334L339.29 320.486L341.501 317.748C342.707 316.255 342.79 315.088 341.75 314.249C341.241 313.838 340.681 313.705 340.069 313.851C339.469 314.006 338.888 314.432 338.325 315.129Z" fill="#A3A3A3"/>
<path d="M326.965 326.287L332.819 326.943L331.893 321.113L333.069 319.877L334.18 327.061L341.046 327.768L339.87 329.004L334.364 328.414L335.222 333.885L334.074 335.089L333.033 328.266L325.774 327.538L326.965 326.287Z" fill="#A3A3A3"/>
<path d="M326.42 342.185L325.248 343.144L319.603 336.244L319.454 347.885L318.414 348.736L311.31 340.053L312.482 339.094L318.128 345.994L318.26 334.367L319.316 333.503L326.42 342.185Z" fill="#A3A3A3"/>
<path d="M301.661 359.818L295.739 350.29L297.025 349.49L302.237 357.877L308.215 354.162L303.002 345.775L304.289 344.976L310.211 354.504L301.661 359.818Z" fill="#A3A3A3"/>
<path d="M288.528 353.914C289.495 353.43 290.474 353.211 291.466 353.255C292.464 353.312 293.38 353.617 294.213 354.17C295.046 354.723 295.708 355.49 296.198 356.469C296.687 357.448 296.904 358.437 296.847 359.435C296.789 360.433 296.481 361.343 295.922 362.163C295.362 362.984 294.599 363.635 293.633 364.119C292.666 364.602 291.687 364.822 290.695 364.777C289.703 364.733 288.797 364.431 287.977 363.872C287.144 363.319 286.482 362.553 285.992 361.573C285.503 360.594 285.286 359.605 285.343 358.607C285.388 357.615 285.686 356.702 286.239 355.869C286.799 355.049 287.562 354.397 288.528 353.914ZM289.129 355.115C288.417 355.472 287.861 355.949 287.46 356.546C287.054 357.163 286.841 357.85 286.822 358.607C286.803 359.364 286.984 360.123 287.366 360.886C287.747 361.649 288.247 362.25 288.864 362.689C289.48 363.128 290.154 363.363 290.886 363.394C291.611 363.445 292.329 363.292 293.041 362.936C293.753 362.58 294.313 362.093 294.72 361.477C295.12 360.879 295.336 360.198 295.368 359.435C295.387 358.679 295.206 357.919 294.824 357.156C294.442 356.393 293.943 355.792 293.326 355.353C292.697 354.921 292.019 354.679 291.295 354.629C290.563 354.597 289.842 354.759 289.129 355.115Z" fill="#A3A3A3"/>
<path d="M270.278 363.247L268.816 359.49L270.148 358.972L271.13 361.496L280.492 357.852L279.509 355.328L280.841 354.81L282.303 358.566L281.707 358.798C281.02 359.111 280.744 359.814 280.879 360.906C281.014 361.997 281.383 363.456 281.987 365.281L283.209 368.833L275.498 371.835L271.908 362.612L270.278 363.247ZM280.664 365.704C280.153 364.194 279.802 362.919 279.611 361.88C279.425 360.854 279.501 360.069 279.838 359.525L273.319 362.063L276.421 370.033L281.45 368.076L280.664 365.704Z" fill="#A3A3A3"/>
<path d="M260.571 364.706L265.3 368.219L267.433 362.714L269.071 362.238L266.417 369.005L271.995 373.071L270.356 373.547L265.895 370.267L263.884 375.426L262.286 375.89L264.819 369.469L258.912 365.188L260.571 364.706Z" fill="#A3A3A3"/>
<path d="M251.077 366.786C252.137 366.577 253.139 366.626 254.084 366.933C255.031 367.253 255.832 367.791 256.488 368.546C257.144 369.301 257.578 370.215 257.79 371.289C258.001 372.364 257.947 373.374 257.626 374.321C257.306 375.269 256.767 376.063 256.009 376.705C255.252 377.347 254.343 377.773 253.282 377.981C252.222 378.19 251.22 378.142 250.275 377.835C249.331 377.528 248.538 376.996 247.896 376.239C247.24 375.484 246.806 374.569 246.594 373.495C246.383 372.421 246.437 371.41 246.758 370.463C247.064 369.519 247.595 368.718 248.35 368.062C249.107 367.42 250.016 366.995 251.077 366.786ZM251.336 368.104C250.555 368.258 249.892 368.57 249.347 369.04C248.791 369.526 248.403 370.132 248.183 370.856C247.963 371.581 247.936 372.361 248.101 373.198C248.266 374.035 248.587 374.747 249.065 375.334C249.543 375.921 250.13 376.327 250.827 376.552C251.512 376.794 252.246 376.838 253.027 376.684C253.808 376.53 254.477 376.21 255.033 375.724C255.578 375.254 255.968 374.655 256.201 373.928C256.421 373.204 256.448 372.423 256.283 371.586C256.118 370.749 255.797 370.037 255.319 369.45C254.827 368.866 254.238 368.453 253.553 368.211C252.856 367.986 252.118 367.951 251.336 368.104Z" fill="#A3A3A3"/>
<path d="M231.611 370.877L231.195 366.867L232.617 366.72L232.896 369.414L242.888 368.377L242.609 365.683L244.03 365.535L244.446 369.544L243.81 369.611C243.064 369.731 242.613 370.335 242.454 371.424C242.295 372.512 242.266 374.016 242.365 375.936L242.604 379.685L234.373 380.54L233.351 370.696L231.611 370.877ZM240.977 375.994C240.883 374.403 240.882 373.081 240.973 372.028C241.065 370.989 241.346 370.252 241.815 369.818L234.857 370.54L235.74 379.047L241.107 378.49L240.977 375.994Z" fill="#A3A3A3"/>
<path d="M219.164 374.918L228.547 374.759C228.442 373.595 227.978 372.657 227.155 371.946C226.333 371.248 225.303 370.91 224.066 370.931C223.37 370.943 222.732 371.075 222.153 371.327C221.575 371.592 221.076 371.971 220.658 372.461L219.788 371.495C220.276 370.889 220.894 370.424 221.642 370.098C222.376 369.773 223.191 369.602 224.086 369.587C225.238 369.568 226.266 369.792 227.169 370.26C228.059 370.743 228.76 371.413 229.273 372.272C229.785 373.131 230.051 374.108 230.069 375.202C230.088 376.297 229.87 377.282 229.415 378.157C228.947 379.033 228.304 379.719 227.488 380.216C226.657 380.714 225.723 380.972 224.685 380.989C223.647 381.007 222.712 380.781 221.879 380.312C221.047 379.842 220.388 379.178 219.904 378.319C219.421 377.474 219.17 376.497 219.151 375.388L219.164 374.918ZM224.663 379.688C225.744 379.67 226.648 379.306 227.375 378.597C228.089 377.902 228.486 377 228.566 375.889L220.612 376.024C220.73 377.132 221.165 378.02 221.916 378.69C222.653 379.374 223.569 379.707 224.663 379.688Z" fill="#A3A3A3"/>
<path d="M206.755 373.86L209.3 374.129L209.826 369.166L211.332 369.326L210.15 380.482L208.644 380.322L209.163 375.423L206.596 375.151L202.154 379.635L200.52 379.462L205.484 374.519L201.384 368.272L203.166 368.461L206.755 373.86Z" fill="#A3A3A3"/>
<path d="M185.862 376.681C184.837 376.444 183.963 375.995 183.24 375.332C182.514 374.683 182.013 373.882 181.737 372.928C181.461 371.974 181.448 370.957 181.697 369.876C181.949 368.782 182.408 367.866 183.074 367.129C183.74 366.393 184.543 365.885 185.483 365.606C186.406 365.337 187.387 365.322 188.426 365.562C189.313 365.766 190.075 366.132 190.712 366.658C191.333 367.195 191.79 367.87 192.084 368.682L193.488 362.592L194.964 362.933L191.514 377.896L190.1 377.57L190.599 375.409C189.989 376.027 189.28 376.447 188.47 376.669C187.646 376.888 186.777 376.892 185.862 376.681ZM188.228 366.895C187.466 366.719 186.733 366.733 186.03 366.936C185.323 367.152 184.722 367.546 184.225 368.117C183.715 368.685 183.364 369.385 183.172 370.216C182.981 371.048 182.991 371.824 183.205 372.544C183.401 373.275 183.769 373.893 184.31 374.397C184.85 374.901 185.501 375.24 186.263 375.416C187.039 375.595 187.78 375.576 188.487 375.36C189.18 375.14 189.781 374.746 190.292 374.178C190.785 373.621 191.127 372.926 191.319 372.095C191.511 371.264 191.509 370.482 191.312 369.751C191.102 369.017 190.734 368.4 190.207 367.899C189.664 367.409 189.004 367.074 188.228 366.895Z" fill="#A3A3A3"/>
<path d="M173.727 373.269C172.334 372.817 171.38 372.118 170.864 371.173C170.344 370.242 170.306 369.094 170.75 367.728L172.898 361.115L174.277 361.563L173.737 363.226C174.242 362.777 174.862 362.5 175.599 362.396C176.322 362.287 177.116 362.373 177.982 362.654C179.172 363.041 180.026 363.632 180.545 364.428C181.064 365.225 181.172 366.09 180.868 367.023C180.574 367.929 180.012 368.554 179.183 368.897C178.34 369.236 177.202 369.173 175.769 368.708L172.381 367.607L172.17 368.256C171.872 369.176 171.903 369.956 172.263 370.596C172.618 371.25 173.29 371.737 174.277 372.058C174.953 372.277 175.64 372.373 176.336 372.345C177.029 372.331 177.662 372.2 178.235 371.953L178.535 373.239C177.845 373.523 177.082 373.664 176.245 373.661C175.405 373.672 174.565 373.542 173.727 373.269ZM177.39 363.717C176.578 363.454 175.823 363.41 175.122 363.587C174.418 363.776 173.81 364.177 173.297 364.788L172.731 366.532L176.078 367.619C177.903 368.212 179.022 367.873 179.435 366.602C179.637 365.98 179.561 365.409 179.206 364.891C178.847 364.385 178.242 363.994 177.39 363.717Z" fill="#A3A3A3"/>
<path d="M160.121 367.773C159.165 367.367 158.406 366.79 157.843 366.042C157.262 365.301 156.925 364.455 156.834 363.505C156.737 362.568 156.897 361.609 157.314 360.627C157.742 359.62 158.344 358.817 159.123 358.221C159.882 357.632 160.746 357.288 161.715 357.189C162.684 357.091 163.679 357.258 164.7 357.691C166.414 358.419 167.487 359.584 167.919 361.188C168.35 362.793 168.116 364.655 167.216 366.775C166.278 368.987 165.14 370.505 163.802 371.327C162.452 372.144 160.791 372.382 158.82 372.04L153.736 371.134L154.042 369.758L158.826 370.606C160.444 370.906 161.777 370.785 162.827 370.241C163.87 369.711 164.769 368.648 165.523 367.053C164.765 367.674 163.919 368.048 162.984 368.177C162.044 368.318 161.089 368.184 160.121 367.773ZM164.169 358.833C163.449 358.527 162.738 358.419 162.036 358.507C161.316 358.603 160.671 358.885 160.101 359.354C159.519 359.818 159.066 360.429 158.744 361.188C158.422 361.947 158.296 362.681 158.366 363.391C158.435 364.1 158.692 364.734 159.134 365.292C159.558 365.858 160.137 366.297 160.87 366.608C161.603 366.919 162.327 367.033 163.041 366.95C163.738 366.875 164.371 366.618 164.943 366.181C165.502 365.739 165.942 365.138 166.264 364.379C166.586 363.619 166.718 362.872 166.659 362.137C166.587 361.396 166.336 360.733 165.904 360.148C165.467 359.577 164.889 359.138 164.169 358.833Z" fill="#A3A3A3"/>
<path d="M153.035 352.115C153.988 352.626 154.732 353.299 155.268 354.135C155.797 354.983 156.076 355.907 156.105 356.907C156.133 357.906 155.889 358.889 155.372 359.854C154.854 360.818 154.171 361.566 153.323 362.095C152.474 362.624 151.554 362.897 150.561 362.913C149.568 362.929 148.595 362.682 147.643 362.171C146.691 361.66 145.946 360.987 145.411 360.151C144.875 359.315 144.599 358.401 144.582 357.408C144.554 356.408 144.798 355.426 145.316 354.461C145.833 353.496 146.516 352.749 147.364 352.22C148.2 351.684 149.118 351.402 150.118 351.373C151.11 351.357 152.083 351.604 153.035 352.115ZM152.4 353.299C151.699 352.923 150.988 352.743 150.269 352.761C149.53 352.785 148.846 353.007 148.217 353.428C147.588 353.849 147.072 354.435 146.669 355.187C146.266 355.939 146.063 356.693 146.06 357.45C146.058 358.207 146.254 358.893 146.65 359.509C147.027 360.13 147.566 360.629 148.268 361.006C148.97 361.382 149.69 361.558 150.428 361.535C151.148 361.517 151.828 361.301 152.47 360.887C153.099 360.466 153.615 359.88 154.018 359.128C154.421 358.376 154.624 357.622 154.627 356.865C154.617 356.101 154.423 355.408 154.047 354.787C153.651 354.171 153.102 353.675 152.4 353.299Z" fill="#A3A3A3"/>
<path d="M133.133 351.722L136.692 354.035L142.073 345.754L143.342 346.58L137.962 354.86L141.521 357.173L140.789 358.299L132.401 352.849L133.133 351.722Z" fill="#A3A3A3"/>
<path d="M125.299 339.925L132.75 345.63C133.391 344.652 133.61 343.629 133.407 342.561C133.196 341.504 132.599 340.599 131.617 339.847C131.064 339.423 130.482 339.13 129.872 338.968C129.254 338.817 128.628 338.804 127.996 338.928L127.915 337.63C128.673 337.459 129.446 337.478 130.235 337.688C131.012 337.889 131.756 338.261 132.468 338.806C133.382 339.506 134.048 340.32 134.466 341.249C134.863 342.18 134.996 343.141 134.864 344.132C134.731 345.123 134.333 346.054 133.667 346.923C133.002 347.792 132.219 348.429 131.319 348.832C130.408 349.227 129.478 349.366 128.529 349.248C127.569 349.122 126.677 348.744 125.853 348.113C125.029 347.482 124.436 346.724 124.075 345.838C123.714 344.953 123.611 344.024 123.766 343.05C123.912 342.087 124.322 341.165 124.996 340.285L125.299 339.925ZM126.644 347.08C127.502 347.736 128.436 348.013 129.447 347.909C130.438 347.808 131.31 347.348 132.063 346.527L125.746 341.691C125.151 342.633 124.939 343.599 125.112 344.59C125.264 345.584 125.775 346.414 126.644 347.08Z" fill="#A3A3A3"/>
<path d="M117.09 345.687L115.739 344.511L122.842 336.838L123.727 337.609L117.09 345.687ZM126.288 333.758C126.524 333.963 126.657 334.221 126.689 334.531C126.7 334.843 126.608 335.111 126.412 335.337C126.207 335.573 125.958 335.696 125.667 335.706C125.366 335.727 125.092 335.63 124.845 335.415C124.609 335.209 124.481 334.956 124.46 334.655C124.43 334.365 124.518 334.102 124.723 333.866C124.919 333.641 125.172 333.513 125.482 333.481C125.783 333.46 126.052 333.553 126.288 333.758Z" fill="#A3A3A3"/>
<path d="M81.4299 286.504C81.1722 285.476 81.2081 284.583 81.5377 283.825C81.8544 283.073 82.4612 282.482 83.3582 282.05C84.5242 281.489 85.6214 281.474 86.6499 282.005C87.6723 282.523 88.5687 283.583 89.3392 285.185L92.2054 291.143L78.7514 297.615L76.0608 292.022C75.3705 290.587 75.1259 289.324 75.327 288.233C75.5281 287.142 76.186 286.329 77.3007 285.792C78.0567 285.429 78.7898 285.313 79.5001 285.445C80.1976 285.582 80.8408 285.936 81.4299 286.504ZM84.1692 293.281L82.1906 289.168C81.6913 288.13 81.0977 287.437 80.4098 287.09C79.7158 286.729 78.9651 286.743 78.1579 287.132C77.3507 287.52 76.8712 288.098 76.7196 288.865C76.5618 289.619 76.7325 290.515 77.2318 291.553L79.2104 295.666L84.1692 293.281ZM88.2052 285.73C87.0895 283.411 85.6668 282.667 83.937 283.499C82.2457 284.313 81.9578 285.88 83.0735 288.199L85.2647 292.754L90.3964 290.285L88.2052 285.73Z" fill="#A3A3A3"/>
<path d="M84.434 273.172C84.8203 274.211 84.9404 275.229 84.7943 276.223C84.6432 277.205 84.2478 278.08 83.6081 278.848C82.9551 279.622 82.1154 280.199 81.0891 280.581C80.0628 280.962 79.0565 281.07 78.0701 280.906C77.0838 280.742 76.2129 280.337 75.4577 279.692C74.6975 279.034 74.1242 278.186 73.7379 277.146C73.4012 276.24 73.2815 275.366 73.3789 274.526C73.458 273.678 73.7606 272.921 74.2869 272.255L75.4003 273.047C75.0093 273.587 74.7862 274.17 74.731 274.798C74.6626 275.43 74.7447 276.059 74.9775 276.685C75.2597 277.445 75.6881 278.067 76.2624 278.552C76.8185 279.028 77.4741 279.322 78.2293 279.436C78.9796 279.537 79.7545 279.438 80.5543 279.141C81.3673 278.839 82.0251 278.405 82.5278 277.839C83.0121 277.265 83.3161 276.613 83.4398 275.885C83.5452 275.148 83.4568 274.399 83.1745 273.64C82.9417 273.013 82.5997 272.481 82.1483 272.042C81.697 271.602 81.147 271.306 80.4985 271.153L80.8245 269.826C81.6578 269.986 82.388 270.36 83.0153 270.946C83.6293 271.537 84.1022 272.279 84.434 273.172Z" fill="#A3A3A3"/>
<path d="M74.1777 257.711L76.6906 266.753C77.7911 266.358 78.5822 265.673 79.0639 264.698C79.5318 263.727 79.6002 262.646 79.2689 261.454C79.0824 260.782 78.7946 260.198 78.4056 259.701C78.0029 259.208 77.5115 258.821 76.9315 258.539L77.6483 257.455C78.357 257.774 78.9629 258.255 79.4661 258.897C79.9655 259.526 80.3351 260.272 80.5749 261.135C80.8833 262.245 80.9246 263.296 80.6987 264.288C80.4552 265.271 79.9823 266.118 79.2799 266.83C78.5775 267.542 77.6989 268.044 76.644 268.337C75.5891 268.63 74.581 268.667 73.6197 268.447C72.6546 268.214 71.8287 267.764 71.1421 267.099C70.4517 266.42 69.9675 265.581 69.6896 264.581C69.4116 263.581 69.3951 262.619 69.6401 261.695C69.885 260.771 70.3625 259.967 71.0726 259.282C71.7689 258.602 72.6513 258.113 73.7199 257.816L74.1777 257.711ZM70.9431 264.233C71.2324 265.274 71.8118 266.057 72.681 266.583C73.5328 267.099 74.5063 267.256 75.6015 267.055L73.4712 259.39C72.4293 259.783 71.6786 260.427 71.219 261.322C70.7419 262.208 70.6499 263.178 70.9431 264.233Z" fill="#A3A3A3"/>
<path d="M77.0573 244.602C77.2176 245.671 77.123 246.67 76.7735 247.6C76.41 248.531 75.8363 249.307 75.0524 249.928C74.2684 250.549 73.3351 250.941 72.2524 251.103C71.1696 251.265 70.1625 251.165 69.2309 250.801C68.2993 250.438 67.5302 249.863 66.9234 249.077C66.3167 248.291 65.9332 247.364 65.7729 246.295C65.6126 245.226 65.7072 244.227 66.0567 243.298C66.4061 242.368 66.9738 241.6 67.7599 240.993C68.5438 240.373 69.4772 239.981 70.5599 239.819C71.6426 239.656 72.6498 239.757 73.5814 240.12C74.5108 240.47 75.286 241.036 75.9068 241.82C76.5135 242.606 76.897 243.534 77.0573 244.602ZM75.7285 244.802C75.6104 244.014 75.3292 243.338 74.8848 242.772C74.4243 242.194 73.8373 241.778 73.1236 241.526C72.41 241.274 71.6314 241.211 70.7877 241.337C69.944 241.464 69.2181 241.752 68.6099 242.203C68.0017 242.654 67.5693 243.222 67.3127 243.907C67.0399 244.581 66.9625 245.311 67.0806 246.099C67.1987 246.886 67.488 247.569 67.9485 248.147C68.3929 248.713 68.9729 249.129 69.6886 249.395C70.4023 249.648 71.1809 249.711 72.0246 249.584C72.8683 249.458 73.5942 249.169 74.2024 248.719C74.8084 248.254 75.2479 247.685 75.5207 247.011C75.7773 246.326 75.8466 245.589 75.7285 244.802Z" fill="#A3A3A3"/>
<path d="M63.9906 220.103L75.2076 219.912L75.2333 221.426L65.3598 221.594L65.4793 228.631L75.3529 228.464L75.3786 229.978L64.1616 230.168L63.9906 220.103Z" fill="#A3A3A3"/>
<path d="M64.425 210.527C64.501 209.477 64.8109 208.545 65.3548 207.729C65.8844 206.912 66.5992 206.293 67.4992 205.874C68.3992 205.454 69.4023 205.285 70.5084 205.365C71.6288 205.446 72.604 205.759 73.4342 206.304C74.2644 206.849 74.8897 207.564 75.3103 208.45C75.7177 209.32 75.8829 210.287 75.8058 211.351C75.7401 212.259 75.4962 213.068 75.074 213.779C74.6387 214.474 74.0425 215.03 73.2854 215.445L79.5182 215.897L79.4088 217.407L64.0926 216.298L64.1974 214.851L66.4097 215.012C65.7051 214.504 65.181 213.868 64.8373 213.101C64.4947 212.321 64.3573 211.463 64.425 210.527ZM74.4579 211.36C74.5144 210.58 74.3885 209.858 74.0802 209.195C73.7577 208.53 73.276 207.996 72.6352 207.593C71.9953 207.176 71.25 206.937 70.3991 206.875C69.5482 206.813 68.7832 206.943 68.1041 207.265C67.4119 207.571 66.8583 208.03 66.4434 208.641C66.0284 209.253 65.7927 209.949 65.7362 210.729C65.6787 211.523 65.8112 212.252 66.1337 212.917C66.4572 213.568 66.9389 214.102 67.5788 214.519C68.2054 214.921 68.9442 215.152 69.7951 215.214C70.646 215.276 71.4176 215.153 72.1098 214.847C72.803 214.527 73.3566 214.068 73.7705 213.47C74.1713 212.858 74.4004 212.155 74.4579 211.36Z" fill="#A3A3A3"/>
<path d="M77.2682 199.074C77.0913 200.14 76.6934 201.061 76.0745 201.838C75.4416 202.612 74.6566 203.174 73.7195 203.523C72.7824 203.872 71.7738 203.957 70.6937 203.777C69.6137 203.598 68.6865 203.192 67.9123 202.559C67.1381 201.926 66.5835 201.142 66.2486 200.208C65.9136 199.273 65.8346 198.272 66.0114 197.206C66.1883 196.14 66.5862 195.219 67.2051 194.443C67.8239 193.666 68.6008 193.11 69.5355 192.775C70.4726 192.426 71.4812 192.341 72.5613 192.521C73.6414 192.7 74.5685 193.106 75.3427 193.739C76.1193 194.358 76.682 195.136 77.031 196.073C77.366 197.008 77.445 198.008 77.2682 199.074ZM75.9426 198.854C76.0729 198.069 76.0139 197.338 75.7657 196.663C75.5057 195.971 75.0751 195.395 74.4741 194.935C73.873 194.475 73.1516 194.175 72.31 194.036C71.4684 193.896 70.6888 193.947 69.9714 194.188C69.2539 194.429 68.6675 194.837 68.2121 195.41C67.745 195.966 67.4463 196.637 67.316 197.423C67.1856 198.208 67.2505 198.947 67.5104 199.639C67.7587 200.314 68.1822 200.889 68.781 201.363C69.3821 201.823 70.1035 202.123 70.9451 202.262C71.7867 202.402 72.5662 202.351 73.2837 202.11C74.0035 201.855 74.5969 201.449 75.064 200.892C75.5194 200.319 75.8123 199.64 75.9426 198.854Z" fill="#A3A3A3"/>
<path d="M80.4234 178.728L84.4264 179.775L84.0649 181.157L81.3411 180.445L78.7454 190.37L67.8918 187.531L68.275 186.066L77.8492 188.571L79.5815 181.947L70.0073 179.443L70.3904 177.978L79.9647 180.482L80.4234 178.728Z" fill="#A3A3A3"/>
<path d="M80.8349 166.212L77.6775 175.049C78.8042 175.361 79.8453 175.258 80.8009 174.738C81.743 174.214 82.4222 173.37 82.8384 172.205C83.0728 171.549 83.1743 170.906 83.1428 170.275C83.0979 169.64 82.9196 169.041 82.6079 168.476L83.8188 168.003C84.2137 168.672 84.4317 169.415 84.4728 170.23C84.5186 171.031 84.3908 171.854 84.0894 172.697C83.7019 173.782 83.1299 174.665 82.3732 175.345C81.608 176.008 80.7332 176.428 79.749 176.605C78.7648 176.782 77.7572 176.686 76.7262 176.318C75.6951 175.949 74.8502 175.398 74.1913 174.664C73.5371 173.917 73.1212 173.074 72.9434 172.135C72.7704 171.182 72.8585 170.217 73.2077 169.24C73.5569 168.262 74.0979 167.467 74.8306 166.853C75.5633 166.239 76.417 165.857 77.3917 165.707C78.3529 165.552 79.3558 165.661 80.4002 166.034L80.8349 166.212ZM74.4329 169.678C74.0693 170.695 74.0912 171.669 74.4985 172.6C74.8973 173.513 75.6021 174.202 76.613 174.669L79.2896 167.177C78.2117 166.898 77.227 166.992 76.3355 167.458C75.4354 167.907 74.8012 168.647 74.4329 169.678Z" fill="#A3A3A3"/>
<path d="M88.7793 161.199C88.3203 162.208 87.6883 163.014 86.8834 163.617C86.0843 164.206 85.187 164.548 84.1914 164.642C83.1829 164.73 82.1804 164.548 81.1837 164.095C80.187 163.641 79.3969 163.009 78.8133 162.197C78.2297 161.385 77.8973 160.484 77.8162 159.494C77.741 158.492 77.9329 157.486 78.3919 156.476C78.7921 155.596 79.3229 154.892 79.9843 154.365C80.6386 153.819 81.387 153.495 82.2296 153.394L82.4607 154.741C81.8029 154.848 81.2333 155.105 80.752 155.511C80.2577 155.911 79.8723 156.415 79.5957 157.023C79.2603 157.761 79.1255 158.504 79.1913 159.253C79.2501 159.982 79.5071 160.654 79.9625 161.267C80.4237 161.867 81.0426 162.343 81.8193 162.697C82.6088 163.056 83.3814 163.212 84.1368 163.165C84.8853 163.099 85.5602 162.851 86.1615 162.422C86.7558 161.973 87.2207 161.38 87.5561 160.642C87.8327 160.034 87.9658 159.415 87.9552 158.786C87.9447 158.156 87.7635 157.558 87.4117 156.992L88.5785 156.281C89.0562 156.982 89.3109 157.762 89.3426 158.62C89.3614 159.472 89.1736 160.331 88.7793 161.199Z" fill="#A3A3A3"/>
<path d="M94.0069 150.865C93.4686 151.834 92.7742 152.587 91.9236 153.123C91.08 153.647 90.1582 153.916 89.1583 153.93C88.146 153.937 87.1612 153.675 86.204 153.144C85.2468 152.612 84.5098 151.919 83.993 151.063C83.4762 150.206 83.217 149.282 83.2153 148.289C83.2205 147.284 83.4923 146.296 84.0306 145.326C84.4999 144.481 85.0852 143.822 85.7867 143.35C86.4826 142.858 87.2545 142.595 88.1025 142.562L88.2251 143.923C87.5608 143.977 86.9726 144.187 86.4603 144.553C85.9356 144.912 85.5111 145.384 85.1867 145.968C84.7933 146.677 84.5995 147.407 84.6053 148.158C84.6055 148.89 84.808 149.58 85.2129 150.227C85.6246 150.863 86.2035 151.387 86.9494 151.801C87.7077 152.222 88.4653 152.439 89.2221 152.453C89.9734 152.447 90.6659 152.254 91.2997 151.874C91.928 151.475 92.4388 150.921 92.8322 150.213C93.1565 149.628 93.3386 149.022 93.3785 148.394C93.4183 147.765 93.2856 147.155 92.9802 146.562L94.2002 145.947C94.6202 146.684 94.8117 147.482 94.7747 148.339C94.7253 149.19 94.4693 150.032 94.0069 150.865Z" fill="#A3A3A3"/>
<path d="M90.6607 134.451C91.4766 133.235 92.4093 132.508 93.459 132.27C94.4969 132.025 95.6121 132.302 96.8048 133.102L102.579 136.976L101.771 138.18L100.319 137.206C100.613 137.814 100.709 138.487 100.609 139.224C100.516 139.949 100.216 140.69 99.7089 141.445C99.0118 142.484 98.2094 143.145 97.3015 143.426C96.3937 143.707 95.5324 143.575 94.7177 143.028C93.9265 142.497 93.479 141.786 93.3751 140.895C93.2791 139.991 93.6509 138.914 94.4906 137.662L96.4748 134.704L95.908 134.324C95.1051 133.785 94.3464 133.602 93.6322 133.773C92.9061 133.937 92.2539 134.45 91.6757 135.312C91.2796 135.902 90.9998 136.536 90.8361 137.214C90.6607 137.884 90.6135 138.529 90.6945 139.148L89.3756 139.085C89.2909 138.343 89.3641 137.571 89.5952 136.767C89.8144 135.955 90.1696 135.183 90.6607 134.451ZM98.8477 140.585C99.323 139.877 99.5715 139.162 99.5933 138.44C99.6033 137.71 99.3844 137.016 98.9368 136.356L97.4135 135.334L95.4531 138.257C94.3837 139.851 94.404 141.02 95.514 141.765C96.0571 142.129 96.6267 142.211 97.2228 142.012C97.807 141.805 98.3487 141.329 98.8477 140.585Z" fill="#A3A3A3"/>
<path d="M108.865 128.819L102.976 128.686L104.418 134.411L103.356 135.746L101.61 128.69L94.708 128.596L95.7701 127.261L101.306 127.358L99.9652 121.986L101.001 120.684L102.645 127.388L109.94 127.467L108.865 128.819Z" fill="#A3A3A3"/>
<path d="M108.344 112.453L109.428 111.396L115.65 117.782L114.79 106.172L115.753 105.234L123.582 113.27L122.497 114.326L116.276 107.941L117.15 119.536L116.173 120.488L108.344 112.453Z" fill="#A3A3A3"/>
<path d="M131.177 92.8845L137.912 101.856L136.701 102.765L130.772 94.8683L125.144 99.0939L131.072 106.991L129.861 107.9L123.126 98.9285L131.177 92.8845Z" fill="#A3A3A3"/>
<path d="M144.62 97.6491C143.7 98.216 142.744 98.5212 141.752 98.5646C140.753 98.596 139.814 98.373 138.935 97.8957C138.056 97.4184 137.33 96.7137 136.755 95.7816C136.181 94.8495 135.878 93.8837 135.847 92.8842C135.815 91.8848 136.042 90.9517 136.527 90.0851C137.012 89.2185 137.714 88.5018 138.634 87.9348C139.554 87.3679 140.51 87.0627 141.502 87.0193C142.494 86.9758 143.423 87.1965 144.29 87.6812C145.169 88.1586 145.895 88.8633 146.47 89.7953C147.044 90.7274 147.347 91.6932 147.378 92.6927C147.422 93.6847 147.205 94.6201 146.727 95.4988C146.243 96.3654 145.54 97.0821 144.62 97.6491ZM143.915 96.5052C144.593 96.0874 145.105 95.5631 145.451 94.9323C145.802 94.2819 145.954 93.579 145.906 92.8235C145.858 92.0681 145.61 91.3273 145.162 90.601C144.715 89.8747 144.164 89.3203 143.511 88.9379C142.858 88.5554 142.166 88.3807 141.435 88.4138C140.708 88.4273 140.006 88.6429 139.328 89.0606C138.65 89.4783 138.136 90.0124 137.785 90.6628C137.439 91.2937 137.284 91.9905 137.319 92.7534C137.367 93.5088 137.615 94.2497 138.063 94.976C138.51 95.7023 139.061 96.2566 139.714 96.6391C140.379 97.0141 141.075 97.1948 141.802 97.1813C142.533 97.1483 143.238 96.9229 143.915 96.5052Z" fill="#A3A3A3"/>
<path d="M161.674 86.8396L163.463 90.4517L162.182 91.086L160.98 88.6589L151.978 93.118L153.181 95.5452L151.9 96.1796L150.111 92.5674L150.684 92.2834C151.341 91.9107 151.553 91.1866 151.322 90.111C151.091 89.0355 150.593 87.6157 149.831 85.8514L148.298 82.4215L155.713 78.7481L160.106 87.6159L161.674 86.8396ZM151.111 85.3125C151.754 86.771 152.217 88.0096 152.499 89.028C152.775 90.0338 152.769 90.8222 152.481 91.3935L158.749 88.2881L154.953 80.6243L150.118 83.0196L151.111 85.3125Z" fill="#A3A3A3"/>
<path d="M171.515 84.3431L166.494 81.2624L164.857 86.9347L163.267 87.5536L165.312 80.5781L159.396 77.0217L160.986 76.4028L165.72 79.2748L167.267 73.9581L168.817 73.3547L166.862 79.9746L173.125 83.7165L171.515 84.3431Z" fill="#A3A3A3"/>
<path d="M180.271 81.5366C179.234 81.8419 178.231 81.8853 177.263 81.6666C176.29 81.4343 175.443 80.9724 174.72 80.281C173.998 79.5896 173.482 78.7188 173.172 77.6686C172.863 76.6183 172.825 75.6069 173.057 74.6343C173.289 73.6617 173.753 72.821 174.448 72.1122C175.144 71.4034 176.01 70.8963 177.046 70.591C178.083 70.2856 179.086 70.2423 180.054 70.461C181.023 70.6797 181.862 71.1367 182.57 71.8321C183.293 72.5235 183.809 73.3943 184.118 74.4446C184.427 75.4948 184.466 76.5062 184.234 77.4789C184.015 78.4475 183.56 79.293 182.869 80.0154C182.173 80.7242 181.307 81.2313 180.271 81.5366ZM179.891 80.2477C180.655 80.0227 181.286 79.6513 181.786 79.1336C182.295 78.5982 182.626 77.9597 182.778 77.2182C182.931 76.4768 182.886 75.6968 182.645 74.8785C182.404 74.0601 182.019 73.3806 181.489 72.84C180.959 72.2994 180.337 71.949 179.623 71.7888C178.918 71.6109 178.184 71.6345 177.42 71.8594C176.656 72.0844 176.02 72.4646 175.51 73C175.011 73.5178 174.678 74.1494 174.512 74.8949C174.36 75.6364 174.404 76.4163 174.645 77.2347C174.887 78.0531 175.272 78.7326 175.802 79.2732C176.345 79.8098 176.969 80.167 177.674 80.3449C178.388 80.5051 179.127 80.4727 179.891 80.2477Z" fill="#A3A3A3"/>
<path d="M200.373 75.4287L201.137 79.3866L199.734 79.6575L199.22 76.9979L189.357 78.9023L189.87 81.5618L188.467 81.8327L187.703 77.8748L188.331 77.7535C189.063 77.5688 189.461 76.9272 189.524 75.829C189.587 74.7307 189.485 73.2297 189.219 71.3261L188.654 67.6121L196.779 66.0434L198.655 75.7602L200.373 75.4287ZM190.596 71.1471C190.829 72.7242 190.945 74.0412 190.947 75.0981C190.945 76.141 190.73 76.8995 190.3 77.3734L197.169 76.0473L195.547 67.6497L190.249 68.6727L190.596 71.1471Z" fill="#A3A3A3"/>
<path d="M212.287 70.3133L202.953 71.2822C203.158 72.4331 203.701 73.3274 204.582 73.965C205.462 74.5885 206.517 74.8363 207.747 74.7086C208.44 74.6367 209.064 74.4504 209.619 74.1498C210.172 73.835 210.636 73.4152 211.011 72.8903L211.961 73.7781C211.527 74.4235 210.952 74.9406 210.235 75.3296C209.532 75.7171 208.734 75.957 207.843 76.0495C206.698 76.1684 205.655 76.0337 204.714 75.6453C203.786 75.2414 203.029 74.6337 202.445 73.8224C201.86 73.011 201.511 72.0609 201.398 70.9719C201.285 69.8829 201.417 68.8828 201.794 67.9716C202.186 67.059 202.767 66.3197 203.537 65.7537C204.321 65.1862 205.23 64.8489 206.262 64.7418C207.295 64.6346 208.246 64.7789 209.116 65.1746C209.986 65.5703 210.7 66.1753 211.256 66.9895C211.811 67.7897 212.145 68.7413 212.26 69.8444L212.287 70.3133ZM206.397 66.0358C205.322 66.1474 204.453 66.5878 203.789 67.3572C203.138 68.1109 202.821 69.0445 202.836 70.1579L210.749 69.3365C210.536 68.2437 210.026 67.396 209.22 66.7935C208.427 66.1753 207.486 65.9228 206.397 66.0358Z" fill="#A3A3A3"/>
<path d="M224.696 70.2379L222.137 70.1954L222.054 75.1855L220.54 75.1604L220.727 63.9433L222.241 63.9684L222.159 68.8945L224.739 68.9374L228.766 64.0768L230.408 64.104L225.904 69.4687L230.542 75.3264L228.75 75.2967L224.696 70.2379Z" fill="#A3A3A3"/>
<path d="M244.748 65.4906C245.79 65.6361 246.7 66.0072 247.478 66.6039C248.259 67.1866 248.828 67.9409 249.187 68.8667C249.546 69.7926 249.649 70.8047 249.495 71.9031C249.34 73.0156 248.963 73.968 248.364 74.7601C247.765 75.5523 247.01 76.1288 246.098 76.4897C245.203 76.8384 244.227 76.9391 243.171 76.7916C242.269 76.6658 241.478 76.3687 240.797 75.9004C240.132 75.4199 239.617 74.7881 239.253 74.005L238.389 80.1942L236.889 79.9848L239.012 64.776L240.448 64.9765L240.142 67.1733C240.695 66.504 241.365 66.0232 242.152 65.7312C242.953 65.441 243.819 65.3609 244.748 65.4906ZM243.251 75.4461C244.025 75.5542 244.754 75.4765 245.437 75.2129C246.122 74.9352 246.686 74.49 247.131 73.8773C247.589 73.2665 247.878 72.5387 247.995 71.6938C248.113 70.8488 248.035 70.0769 247.759 69.378C247.499 68.667 247.078 68.0842 246.495 67.6296C245.913 67.175 245.234 66.8936 244.46 66.7855C243.671 66.6754 242.934 66.7592 242.25 67.0369C241.579 67.3165 241.014 67.7617 240.556 68.3725C240.113 68.9711 239.833 69.6929 239.715 70.5379C239.597 71.3828 239.668 72.1608 239.928 72.8718C240.201 73.5847 240.623 74.1676 241.191 74.6202C241.776 75.0607 242.462 75.336 243.251 75.4461Z" fill="#A3A3A3"/>
<path d="M257.418 67.8252C258.845 68.1543 259.857 68.7669 260.453 69.6631C261.052 70.5454 261.19 71.6863 260.867 73.0857L259.305 79.8609L257.892 79.535L258.285 77.8308C257.821 78.3222 257.227 78.6521 256.503 78.8207C255.792 78.9924 254.993 78.976 254.106 78.7715C252.887 78.4904 251.984 77.9758 251.398 77.2277C250.812 76.4797 250.629 75.6277 250.849 74.6716C251.063 73.7433 251.568 73.0718 252.364 72.6571C253.174 72.2456 254.313 72.2092 255.782 72.5478L259.253 73.3481L259.406 72.6831C259.623 71.7409 259.525 70.9667 259.11 70.3603C258.699 69.7401 257.987 69.3134 256.976 69.0802C256.283 68.9205 255.591 68.8849 254.899 68.9735C254.211 69.0482 253.591 69.2337 253.042 69.5301L252.63 68.2753C253.293 67.932 254.041 67.7251 254.875 67.6546C255.711 67.5703 256.559 67.6271 257.418 67.8252ZM254.603 77.6604C255.434 77.8521 256.191 77.8296 256.873 77.5929C257.558 77.3423 258.13 76.8903 258.587 76.2369L258.999 74.4496L255.57 73.6589C253.699 73.2276 252.614 73.6631 252.313 74.9655C252.167 75.6029 252.292 76.1645 252.691 76.6504C253.093 77.1225 253.73 77.4591 254.603 77.6604Z" fill="#A3A3A3"/>
<path d="M271.65 72.1339C272.637 72.4546 273.443 72.9632 274.069 73.6599C274.713 74.3474 275.122 75.1604 275.295 76.0988C275.473 77.0237 275.398 77.9933 275.068 79.0075C274.73 80.0488 274.199 80.9005 273.476 81.5626C272.77 82.2155 271.94 82.6333 270.983 82.816C270.027 82.9988 269.021 82.9188 267.966 82.5762C266.195 82.0008 265.024 80.9329 264.455 79.3725C263.885 77.8121 263.956 75.9365 264.668 73.7457C265.41 71.4602 266.412 69.8495 267.673 68.9135C268.947 67.982 270.581 67.6007 272.574 67.7697L277.717 68.2293L277.532 69.6268L272.693 69.1987C271.055 69.0404 269.737 69.2776 268.739 69.9103C267.746 70.5295 266.943 71.6665 266.331 73.3215C267.031 72.6371 267.842 72.1902 268.762 71.9808C269.686 71.7578 270.649 71.8089 271.65 72.1339ZM268.396 81.3926C269.14 81.6341 269.857 81.6803 270.548 81.5311C271.258 81.3728 271.876 81.0353 272.402 80.5186C272.942 80.0064 273.34 79.3581 273.595 78.5737C273.849 77.7894 273.911 77.047 273.78 76.3465C273.648 75.6461 273.338 75.0369 272.848 74.5191C272.377 73.9921 271.762 73.6057 271.005 73.3597C270.248 73.1137 269.517 73.0631 268.812 73.2079C268.125 73.3436 267.516 73.6541 266.984 74.1393C266.466 74.6289 266.08 75.2659 265.825 76.0502C265.571 76.8346 265.505 77.5905 265.627 78.318C265.763 79.0499 266.071 79.6883 266.552 80.2331C267.038 80.7645 267.652 81.151 268.396 81.3926Z" fill="#A3A3A3"/>
<path d="M280.044 87.0728C279.051 86.6471 278.251 86.0412 277.644 85.2552C277.043 84.4561 276.685 83.5599 276.569 82.5667C276.453 81.5734 276.611 80.5736 277.042 79.5673C277.474 78.561 278.089 77.7572 278.888 77.1561C279.687 76.5549 280.58 76.203 281.568 76.1003C282.556 75.9977 283.546 76.1592 284.539 76.5849C285.533 77.0106 286.333 77.6164 286.939 78.4025C287.546 79.1885 287.901 80.0753 288.003 81.063C288.119 82.0562 287.961 83.056 287.53 84.0624C287.099 85.0687 286.484 85.8724 285.685 86.4736C284.898 87.0803 284.009 87.4416 283.016 87.5573C282.028 87.66 281.037 87.4985 280.044 87.0728ZM280.574 85.8378C281.305 86.1514 282.029 86.2681 282.744 86.1879C283.478 86.1001 284.14 85.8192 284.73 85.3449C285.32 84.8707 285.783 84.2416 286.119 83.4574C286.455 82.6733 286.591 81.9041 286.528 81.1498C286.464 80.3955 286.208 79.729 285.76 79.1502C285.331 78.5639 284.75 78.114 284.018 77.8003C283.286 77.4866 282.554 77.3737 281.82 77.4614C281.105 77.5417 280.446 77.8161 279.843 78.2847C279.253 78.7589 278.79 79.3881 278.454 80.1722C278.118 80.9564 277.981 81.7256 278.045 82.4799C278.121 83.2397 278.374 83.9128 278.804 84.4991C279.252 85.0779 279.842 85.5241 280.574 85.8378Z" fill="#A3A3A3"/>
<path d="M299.374 85.3963L295.619 83.4178L291.016 92.1543L289.676 91.4484L294.28 82.7119L290.525 80.7335L291.151 79.5447L300.001 84.2075L299.374 85.3963Z" fill="#A3A3A3"/>
<path d="M308.872 96.8067L300.947 91.7803C300.394 92.8106 300.266 93.849 300.562 94.8955C300.866 95.9299 301.54 96.7784 302.584 97.441C303.173 97.8142 303.778 98.0548 304.4 98.1629C305.029 98.2591 305.653 98.2172 306.272 98.0375L306.467 99.3229C305.727 99.5607 304.955 99.6098 304.151 99.4703C303.359 99.3385 302.585 99.0326 301.829 98.5528C300.856 97.936 300.121 97.1835 299.624 96.2955C299.146 95.403 298.929 94.4573 298.973 93.4583C299.018 92.4593 299.333 91.4976 299.919 90.573C300.506 89.6484 301.229 88.9456 302.09 88.4645C302.963 87.991 303.877 87.7709 304.832 87.8044C305.8 87.8455 306.722 88.144 307.598 88.7C308.475 89.2559 309.132 89.9589 309.569 90.8088C310.007 91.6588 310.191 92.5756 310.123 93.5594C310.062 94.5312 309.735 95.4853 309.141 96.4219L308.872 96.8067ZM306.901 89.7986C305.989 89.2198 305.034 89.0266 304.036 89.2189C303.058 89.4069 302.23 89.9425 301.552 90.8257L308.27 95.0867C308.78 94.0969 308.906 93.1157 308.647 92.1434C308.408 91.1666 307.826 90.385 306.901 89.7986Z" fill="#A3A3A3"/>
<path d="M316.324 90.1743L317.774 91.2263L311.378 99.4977L310.429 98.8089L316.324 90.1743ZM308.22 102.871C307.966 102.688 307.81 102.443 307.751 102.136C307.712 101.827 307.781 101.551 307.956 101.31C308.14 101.057 308.376 100.912 308.666 100.876C308.964 100.829 309.245 100.901 309.51 101.093C309.763 101.277 309.913 101.518 309.961 101.815C310.016 102.102 309.952 102.372 309.769 102.625C309.593 102.867 309.352 103.017 309.046 103.076C308.748 103.123 308.473 103.055 308.22 102.871Z" fill="#A3A3A3"/>
<circle cx="101.791" cy="318.309" r="4.97658" transform="rotate(-23.2576 101.791 318.309)" fill="#A3A3A3"/>
<circle cx="343.374" cy="127.811" r="4.97658" transform="rotate(-23.2576 343.374 127.811)" fill="#A3A3A3"/>
</svg>
