<svg width="415" height="424" viewBox="0 0 415 424" fill="none" xmlns="http://www.w3.org/2000/svg">
<path fill-rule="evenodd" clip-rule="evenodd" d="M198.104 180.653V411.068L241.17 391.066L240.387 165.453L198.104 180.653ZM159.736 311.061L104.141 287.86L46.1981 308.661V310.261L160.519 356.664V311.061H159.736ZM108.84 183.054L109.623 276.659L159.736 296.661V203.855L108.84 183.054ZM45.415 295.861L97.0943 277.459L95.5282 178.253L45.415 157.452V295.861ZM328.085 239.857L303.028 263.059L350.009 288.66L391.509 275.059L328.085 239.857ZM140.943 99.8486V31.8445L209.849 0.642578L415 92.6481L412.651 162.252L338.264 231.057L411.085 269.459L411.868 343.863L354.707 367.865L253.698 310.261V397.467L198.104 423.868L1.56589 332.663L0 80.6474L52.4621 61.4463L140.943 99.8486ZM153.472 38.2449V105.449L253.698 148.652V199.855L331.217 123.85L153.472 38.2449ZM169.915 29.4443L209.066 11.0432L392.292 93.4482L350.009 113.449L169.915 29.4443ZM18.0093 89.448L197.321 167.053L234.906 153.452L52.4621 75.8471L18.0093 89.448Z" fill="#EFEFEF"/>
</svg>
