<svg width="21" height="13" viewBox="0 0 21 13" fill="none" xmlns="http://www.w3.org/2000/svg">
<path d="M8.96034 9.30938V1.49707H11.3445V5.74181V6.2935L11.8935 6.2394C13.0769 6.1228 14.239 5.45745 15.1855 4.54466C16.0485 3.71237 16.7673 2.64175 17.1875 1.49707H19.5629C19.2738 2.43347 18.8127 3.32164 18.196 4.12283C17.4469 5.0962 16.4841 5.92051 15.3661 6.54204L14.4997 7.02362L15.4019 7.43415C16.6534 8.00361 17.7554 8.80813 18.6369 9.79219C19.362 10.6017 19.9244 11.5174 20.3022 12.4971H17.6328C17.2277 11.4144 16.5169 10.4527 15.5763 9.70995C14.5348 8.88748 13.2562 8.36827 11.9018 8.21207L11.3445 8.1478V8.70878V12.4968C7.91082 12.4775 5.2683 11.3908 3.45642 9.46524C1.70895 7.60815 0.682708 4.91604 0.51795 1.49707H3.11147C3.37662 6.8266 6.04207 9.26867 8.34875 9.79677L8.96034 9.93679V9.30938Z" fill="#CFCFCF" stroke="#CFCFCF"/>
</svg>
