<svg width="22" height="15" viewBox="0 0 22 15" fill="none" xmlns="http://www.w3.org/2000/svg">
<mask id="path-1-inside-1_67_105" fill="white">
<path fill-rule="evenodd" clip-rule="evenodd" d="M0.826586 1.56496C0 2.64218 0 4.2059 0 7.33333C0 10.4608 0 12.0245 0.826586 13.1017C1.03939 13.379 1.28763 13.6273 1.56496 13.8401C2.64218 14.6667 4.2059 14.6667 7.33333 14.6667H14.6667C17.7941 14.6667 19.3578 14.6667 20.435 13.8401C20.7124 13.6273 20.9606 13.379 21.1734 13.1017C22 12.0245 22 10.4608 22 7.33333C22 4.2059 22 2.64218 21.1734 1.56496C20.9606 1.28763 20.7124 1.03939 20.435 0.826586C19.3578 0 17.7941 0 14.6667 0H7.33333C4.2059 0 2.64218 0 1.56496 0.826586C1.28763 1.03939 1.03939 1.28763 0.826586 1.56496ZM9.53332 9.82456L13.9333 6.96667L9.53332 4.10879V9.82456Z"/>
</mask>
<path fill-rule="evenodd" clip-rule="evenodd" d="M0.826586 1.56496C0 2.64218 0 4.2059 0 7.33333C0 10.4608 0 12.0245 0.826586 13.1017C1.03939 13.379 1.28763 13.6273 1.56496 13.8401C2.64218 14.6667 4.2059 14.6667 7.33333 14.6667H14.6667C17.7941 14.6667 19.3578 14.6667 20.435 13.8401C20.7124 13.6273 20.9606 13.379 21.1734 13.1017C22 12.0245 22 10.4608 22 7.33333C22 4.2059 22 2.64218 21.1734 1.56496C20.9606 1.28763 20.7124 1.03939 20.435 0.826586C19.3578 0 17.7941 0 14.6667 0H7.33333C4.2059 0 2.64218 0 1.56496 0.826586C1.28763 1.03939 1.03939 1.28763 0.826586 1.56496ZM9.53332 9.82456L13.9333 6.96667L9.53332 4.10879V9.82456Z" fill="#CFCFCF"/>
<path d="M0.826586 1.56496L0.0332323 0.956194L0.0332323 0.956194L0.826586 1.56496ZM0.826586 13.1017L1.61994 12.4929L1.61994 12.4929L0.826586 13.1017ZM1.56496 13.8401L2.17372 13.0467H2.17372L1.56496 13.8401ZM20.435 13.8401L21.0438 14.6334L21.0438 14.6334L20.435 13.8401ZM21.1734 13.1017L21.9668 13.7105L21.9668 13.7105L21.1734 13.1017ZM21.1734 1.56496L21.9668 0.956194L21.9668 0.956193L21.1734 1.56496ZM20.435 0.826586L21.0438 0.0332333L21.0438 0.0332322L20.435 0.826586ZM1.56496 0.826586L0.956194 0.0332323L0.956194 0.0332323L1.56496 0.826586ZM13.9333 6.96667L14.478 7.8053L15.7692 6.96667L14.478 6.12805L13.9333 6.96667ZM9.53332 9.82456H8.53332V11.6665L10.078 10.6632L9.53332 9.82456ZM9.53332 4.10879L10.078 3.27016L8.53332 2.26685V4.10879H9.53332ZM1 7.33333C1 5.74636 1.00149 4.63983 1.09703 3.79234C1.1903 2.96501 1.36249 2.50923 1.61994 2.17372L0.0332323 0.956194C-0.535901 1.6979 -0.777005 2.5626 -0.890382 3.56829C-1.00149 4.55383 -1 5.79287 -1 7.33333H1ZM1.61994 12.4929C1.36249 12.1574 1.1903 11.7017 1.09703 10.8743C1.00149 10.0268 1 8.92031 1 7.33333H-1C-1 8.87379 -1.00149 10.1128 -0.890382 11.0984C-0.777005 12.1041 -0.535901 12.9688 0.0332325 13.7105L1.61994 12.4929ZM2.17372 13.0467C1.96572 12.8871 1.77954 12.7009 1.61994 12.4929L0.0332323 13.7105C0.299234 14.0571 0.609532 14.3674 0.956195 14.6334L2.17372 13.0467ZM7.33333 13.6667C5.74636 13.6667 4.63983 13.6652 3.79234 13.5696C2.96501 13.4764 2.50923 13.3042 2.17372 13.0467L0.956194 14.6334C1.6979 15.2026 2.5626 15.4437 3.56829 15.557C4.55383 15.6682 5.79287 15.6667 7.33333 15.6667V13.6667ZM14.6667 13.6667H7.33333V15.6667H14.6667V13.6667ZM19.8263 13.0467C19.4908 13.3042 19.035 13.4764 18.2077 13.5696C17.3602 13.6652 16.2536 13.6667 14.6667 13.6667V15.6667C16.2071 15.6667 17.4462 15.6682 18.4317 15.557C19.4374 15.4437 20.3021 15.2026 21.0438 14.6334L19.8263 13.0467ZM20.3801 12.4929C20.2205 12.7009 20.0343 12.8871 19.8263 13.0467L21.0438 14.6334C21.3905 14.3674 21.7008 14.0571 21.9668 13.7105L20.3801 12.4929ZM21 7.33333C21 8.92031 20.9985 10.0268 20.903 10.8743C20.8097 11.7017 20.6375 12.1574 20.3801 12.4929L21.9668 13.7105C22.5359 12.9688 22.777 12.1041 22.8904 11.0984C23.0015 10.1128 23 8.87379 23 7.33333H21ZM20.3801 2.17372C20.6375 2.50923 20.8097 2.96501 20.903 3.79234C20.9985 4.63983 21 5.74636 21 7.33333H23C23 5.79287 23.0015 4.55383 22.8904 3.56829C22.777 2.5626 22.5359 1.6979 21.9668 0.956194L20.3801 2.17372ZM19.8263 1.61994C20.0343 1.77954 20.2205 1.96572 20.3801 2.17372L21.9668 0.956193C21.7008 0.609532 21.3905 0.299236 21.0438 0.0332333L19.8263 1.61994ZM14.6667 1C16.2536 1 17.3602 1.00149 18.2077 1.09703C19.035 1.1903 19.4908 1.36249 19.8263 1.61994L21.0438 0.0332322C20.3021 -0.535901 19.4374 -0.777005 18.4317 -0.890382C17.4462 -1.00149 16.2071 -1 14.6667 -1V1ZM7.33333 1H14.6667V-1H7.33333V1ZM2.17372 1.61994C2.50923 1.36249 2.96501 1.1903 3.79234 1.09703C4.63983 1.00149 5.74636 1 7.33333 1V-1C5.79287 -1 4.55383 -1.00149 3.56829 -0.890382C2.5626 -0.777005 1.6979 -0.535901 0.956194 0.0332323L2.17372 1.61994ZM1.61994 2.17372C1.77954 1.96572 1.96572 1.77954 2.17372 1.61994L0.956194 0.0332323C0.609532 0.299235 0.299235 0.609532 0.0332323 0.956194L1.61994 2.17372ZM13.3886 6.12805L8.98861 8.98593L10.078 10.6632L14.478 7.8053L13.3886 6.12805ZM8.98861 4.94742L13.3886 7.8053L14.478 6.12805L10.078 3.27016L8.98861 4.94742ZM10.5333 9.82456V4.10879H8.53332V9.82456H10.5333Z" fill="#CFCFCF" mask="url(#path-1-inside-1_67_105)"/>
</svg>
