<svg width="479" height="492" viewBox="0 0 479 492" fill="none" xmlns="http://www.w3.org/2000/svg">
<path fill-rule="evenodd" clip-rule="evenodd" d="M228.655 209.263V477.119L278.362 453.868L277.458 191.592L228.655 209.263ZM184.37 360.862L120.202 333.89L53.3226 358.072V359.932L185.274 413.875V360.862H184.37ZM125.624 212.053L126.528 320.87L184.37 344.121V236.234L125.624 212.053ZM52.4188 343.191L112.068 321.8L110.26 206.473L52.4188 182.291V343.191ZM378.681 278.087L349.76 305.059L403.987 334.82L451.887 319.009L378.681 278.087ZM162.679 115.327V36.2722L242.211 0L479 106.956L476.289 187.871L390.43 267.856L474.481 312.499L475.385 398.994L409.409 426.896L292.823 359.932V461.308L228.655 492L1.80738 385.974L0 93.0056L60.5527 70.6843L162.679 115.327ZM177.139 43.7127V121.837L292.823 172.06V231.584L382.296 143.229L177.139 43.7127ZM196.119 33.482L241.307 12.0907L452.79 107.887L403.987 131.138L196.119 33.482ZM20.7867 103.236L227.751 193.452L271.132 177.641L60.5527 87.4253L20.7867 103.236Z" fill="#F4F4F4"/>
</svg>
