<svg width="300" height="300" viewBox="0 0 300 300" fill="none" xmlns="http://www.w3.org/2000/svg">
<rect width="300" height="300" rx="52.8228" fill="#1F1B20"/>
<path fill-rule="evenodd" clip-rule="evenodd" d="M148.01 134.61V242.515L167.015 233.177L166.699 127.693L148.01 134.61ZM131.222 195.825L106.831 184.758L81.4903 194.788V195.48L131.538 217.268V195.825H131.222ZM109.048 135.647L109.365 179.57L131.222 188.908V145.331L109.048 135.647ZM81.4903 188.217L103.98 179.57L103.03 132.881L81.4903 123.543V188.217ZM205.027 162.278L193.94 172.999L214.529 184.758L232.585 178.533L205.027 162.278ZM122.986 96.912V65.0937L153.078 50.568L243.038 93.4535L242.088 125.963L209.461 158.128L241.137 176.112L241.454 211.043L216.747 222.802L172.4 195.825V236.982L148.01 249.432L61.8512 206.201L60.9009 88.2657L84.0244 79.2736L122.986 96.912ZM128.688 67.8605V99.333L172.717 119.392V143.602L206.61 107.979L128.688 67.8605ZM135.656 63.7103L152.761 55.0641L233.218 93.7994L214.529 103.483L135.656 63.7103ZM69.4534 91.7243L148.01 128.039L164.481 121.813L84.6579 85.4989L69.4534 91.7243Z" fill="#F3F3F3"/>
<path fill-rule="evenodd" clip-rule="evenodd" d="M102.548 132.857L108.629 135.288L109.269 179.046L131.031 188.77V195.716L106.389 184.603L80.7861 194.674V188.076L103.188 179.741L102.548 132.857Z" fill="#42AF6C"/>
</svg>
