<svg width="150" height="59" viewBox="0 0 150 59" fill="none" xmlns="http://www.w3.org/2000/svg">
<path d="M146.901 46.8633H143.99V43.1801H146.901C148.31 43.1801 149.155 43.7063 149.155 44.9691C149.155 46.3371 148.31 46.8633 146.901 46.8633ZM143.99 38.8656H146.619C147.934 38.8656 148.685 39.497 148.685 40.6546C148.685 41.8121 147.934 42.4435 146.619 42.4435H143.99V38.8656ZM148.216 42.7592C149.061 42.4435 149.624 41.7069 149.624 40.5493C149.624 38.9709 148.497 38.129 146.713 38.129H143.145V47.7051H146.901C148.967 47.7051 150 46.758 150 45.0743C150 43.8115 149.343 42.9697 148.216 42.7592ZM132.44 46.8633C130.374 46.8633 128.871 45.1796 128.871 42.8645C128.871 40.5494 130.374 38.8656 132.44 38.8656C134.506 38.8656 136.008 40.5494 136.008 42.8645C136.008 45.1796 134.506 46.8633 132.44 46.8633ZM132.44 47.8103C134.975 47.8103 136.947 45.7057 136.947 42.9697C136.947 40.1284 135.069 38.129 132.44 38.129C129.81 38.129 127.932 40.2337 127.932 42.9697C127.932 45.7057 129.904 47.8103 132.44 47.8103ZM120.889 38.129V42.4435H115.537V38.129H114.598V47.7051H115.537V43.2854H120.889V47.7051H121.734V38.129H120.889ZM100.606 47.7051H101.451L106.897 39.8127V47.7051H107.742V38.129H106.897L101.451 46.0214V38.129H100.606V47.7051ZM104.08 37.3924C105.301 37.3924 106.052 36.761 106.052 35.6035H105.395C105.395 36.3401 104.831 36.761 104.08 36.761C103.329 36.761 102.765 36.3401 102.765 35.6035H102.108C102.108 36.761 102.859 37.3924 104.08 37.3924ZM88.4919 44.3377L90.5578 39.1813L92.6237 44.3377H88.4919ZM93.9384 47.7051H94.8774L90.9334 38.129H90.0882L86.1442 47.7051H87.0833L88.1162 45.1796H92.9054L93.9384 47.7051ZM78.444 43.8115H76.1902V38.9709H78.444C80.1343 38.9709 81.0733 39.8127 81.0733 41.3912C81.0733 42.8645 80.2282 43.8115 78.444 43.8115ZM78.5379 38.129H75.3451V47.7051H76.2841V44.6534H78.5379C80.6977 44.6534 82.0124 43.3906 82.0124 41.3912C82.0124 39.2866 80.6977 38.129 78.5379 38.129ZM68.8656 47.7051H69.8986L66.518 42.7592L69.7107 38.129H68.7717L65.8606 42.4435H63.8886V38.129H63.0435V47.7051H63.8886V43.2854H65.8606L68.8656 47.7051Z" fill="white"/>
<path d="M137.1 23.3671V20.3744C137.1 16.8656 138.795 15.2144 141.432 15.2144C143.974 15.2144 145.763 16.8656 145.763 20.3744V23.3671H137.1ZM141.432 11.1897C136.253 11.1897 132.769 14.5952 132.769 20.8903V32.139H137.1V27.1854H145.669V32.139H150V20.8903C150 14.5952 146.61 11.1897 141.432 11.1897ZM122.129 11.4993V19.652H113.561V11.4993H109.23V32.139H113.561V23.6767H122.129V32.139H126.461V11.4993H122.129ZM100.191 32.2422H105.275L96.9895 20.7872L104.805 11.6025H100.003L91.6225 21.1999V11.6025H87.2913V32.2422H91.6225V26.9791L94.1648 24.0895L100.191 32.2422ZM71.7553 28.527C68.3657 28.527 65.8234 25.8439 65.8234 21.9223C65.8234 18.0008 68.3657 15.3176 71.7553 15.3176C75.145 15.3176 77.6872 18.0008 77.6872 21.9223C77.5931 25.8439 75.145 28.527 71.7553 28.527ZM71.7553 32.5518C77.6873 32.5518 82.0185 28.011 82.0185 21.9223C82.0185 15.7304 77.5931 11.2929 71.7553 11.2929C65.8234 11.2929 61.4922 15.8336 61.4922 21.9223C61.398 28.011 65.8234 32.5518 71.7553 32.5518Z" fill="white"/>
<path fill-rule="evenodd" clip-rule="evenodd" d="M25.8439 24.9339V56.9478L31.4826 54.1774L31.3886 22.8817L25.8439 24.9339ZM20.8631 43.0956L13.6268 39.8122L6.10856 42.7878V42.993L20.9571 49.4574V43.0956H20.8631ZM14.2846 25.2417L14.3786 38.273L20.8631 41.0435V28.1148L14.2846 25.2417ZM6.10856 40.8383L12.781 38.273L12.4991 24.4209L6.10856 21.6504V40.8383ZM42.7599 33.1426L39.4707 36.3235L45.5793 39.8122L50.936 37.9652L42.7599 33.1426ZM18.4197 13.7496V4.30957L27.3476 0L54.0373 12.7235L53.7553 22.3687L44.0756 31.9113L53.4734 37.247L53.5674 47.6104L46.2371 51.0991L33.0802 43.0956V55.3061L25.8439 59L0.281933 46.1739L0 11.1843L6.86038 8.51652L18.4197 13.7496ZM20.1113 5.13043V14.4678L33.1742 20.4191V27.6017L43.2298 17.033L20.1113 5.13043ZM22.1788 3.89913L27.2536 1.33392L51.124 12.8261L45.5793 15.6991L22.1788 3.89913ZM2.5374 12.2104L25.8439 22.9843L30.7308 21.1374L7.04834 10.3635L2.5374 12.2104Z" fill="white"/>
<path fill-rule="evenodd" clip-rule="evenodd" d="M12.3571 24.4138L14.1611 25.135L14.351 38.1175L20.8075 41.0025V43.0632L13.4965 39.7661L5.90063 42.7541V40.7964L12.547 38.3236L12.3571 24.4138Z" fill="#42AF6C"/>
</svg>
